ISO-10303-21;
HEADER;
FILE_DESCRIPTION (( 'STEP AP214' ),
    '1' );
FILE_NAME ('Rod2-For Circular Plate.STEP',
    '2026-08-16T14:55:50',
    ( '' ),
    ( '' ),
    'SwSTEP 2.0',
    'SolidWorks 2025',
    '' );
FILE_SCHEMA (( 'AUTOMOTIVE_DESIGN' ));
ENDSEC;

DATA;
#1 =( NAMED_UNIT ( * ) SI_UNIT ( $, .STERADIAN. ) SOLID_ANGLE_UNIT ( ) );
#2 = ORIENTED_EDGE ( 'NONE', *, *, #9, .T. ) ;
#3 = ORIENTED_EDGE ( 'NONE', *, *, #114, .F. ) ;
#4 = DIRECTION ( 'NONE',  ( 0.000000000000000000, 0.000000000000000000, 1.000000000000000000 ) ) ;
#5 = ADVANCED_FACE ( 'NONE', ( #54 ), #120, .T. ) ;
#6 = CARTESIAN_POINT ( 'NONE',  ( 0.000000000000000000, 0.000000000000000000, 0.000000000000000000 ) ) ;
#7 = CARTESIAN_POINT ( 'NONE',  ( 0.000000000000000000, 0.000000000000000000, 30.00000000000000000 ) ) ;
#8 = MECHANICAL_DESIGN_GEOMETRIC_PRESENTATION_REPRESENTATION (  '', ( #119 ), #110 ) ;
#9 = EDGE_CURVE ( 'NONE', #107, #42, #50, .T. ) ;
#10 = FACE_OUTER_BOUND ( 'NONE', #19, .T. ) ;
#11 = SURFACE_SIDE_STYLE ('',( #41 ) ) ;
#12 = DIRECTION ( 'NONE',  ( -1.000000000000000000, 0.000000000000000000, 0.000000000000000000 ) ) ;
#13 = ADVANCED_FACE ( 'NONE', ( #88 ), #87, .T. ) ;
#14 = DIRECTION ( 'NONE',  ( 0.000000000000000000, 0.000000000000000000, 1.000000000000000000 ) ) ;
#15 = CIRCLE ( 'NONE', #22, 5.500000000000000000 ) ;
#16 = CIRCLE ( 'NONE', #74, 5.500000000000000000 ) ;
#17 = DIRECTION ( 'NONE',  ( -0.000000000000000000, -0.000000000000000000, -1.000000000000000000 ) ) ;
#18 = DIRECTION ( 'NONE',  ( -0.000000000000000000, -0.000000000000000000, -1.000000000000000000 ) ) ;
#19 = EDGE_LOOP ( 'NONE', ( #44, #3 ) ) ;
#20 = EDGE_CURVE ( 'NONE', #30, #31, #57, .T. ) ;
#21 = ORIENTED_EDGE ( 'NONE', *, *, #96, .F. ) ;
#22 = AXIS2_PLACEMENT_3D ( 'NONE', #7, #84, #124 ) ;
#23 = ORIENTED_EDGE ( 'NONE', *, *, #114, .T. ) ;
#24 = DIRECTION ( 'NONE',  ( 1.000000000000000000, 0.000000000000000000, 0.000000000000000000 ) ) ;
#25 =( NAMED_UNIT ( * ) SI_UNIT ( $, .STERADIAN. ) SOLID_ANGLE_UNIT ( ) );
#26 = PRODUCT_CONTEXT ( 'NONE', #71, 'mechanical' ) ;
#27 = CYLINDRICAL_SURFACE ( 'NONE', #61, 5.500000000000000000 ) ;
#28 = EDGE_LOOP ( 'NONE', ( #21, #77, #122, #2 ) ) ;
#29 = CARTESIAN_POINT ( 'NONE',  ( -5.500000000000000000, 0.000000000000000000, 0.000000000000000000 ) ) ;
#30 = VERTEX_POINT ( 'NONE', #60 ) ;
#31 = VERTEX_POINT ( 'NONE', #116 ) ;
#32 = AXIS2_PLACEMENT_3D ( 'NONE', #6, #48, #83 ) ;
#33 = CARTESIAN_POINT ( 'NONE',  ( 0.000000000000000000, 0.000000000000000000, 30.00000000000000000 ) ) ;
#34 = VECTOR ( 'NONE', #18, 1000.000000000000000 ) ;
#35 = ADVANCED_FACE ( 'NONE', ( #56 ), #27, .T. ) ;
#36 =( LENGTH_UNIT ( ) NAMED_UNIT ( * ) SI_UNIT ( .MILLI., .METRE. ) );
#37 = ADVANCED_BREP_SHAPE_REPRESENTATION ( 'Rod2-For Circular Plate', ( #80, #82 ), #100 ) ;
#38 = CARTESIAN_POINT ( 'NONE',  ( 0.000000000000000000, 0.000000000000000000, 0.000000000000000000 ) ) ;
#39 = DIRECTION ( 'NONE',  ( -0.000000000000000000, -0.000000000000000000, -1.000000000000000000 ) ) ;
#40 = COLOUR_RGB ( '',0.7921568627450980005, 0.8196078431372548767, 0.9333333333333333481 ) ;
#41 = SURFACE_STYLE_FILL_AREA ( #52 ) ;
#42 = VERTEX_POINT ( 'NONE', #92 ) ;
#43 = FILL_AREA_STYLE_COLOUR ( '', #40 ) ;
#44 = ORIENTED_EDGE ( 'NONE', *, *, #9, .F. ) ;
#45 = AXIS2_PLACEMENT_3D ( 'NONE', #109, #97, #12 ) ;
#46 = EDGE_LOOP ( 'NONE', ( #67, #118 ) ) ;
#47 = UNCERTAINTY_MEASURE_WITH_UNIT (LENGTH_MEASURE( 1.000000000000000082E-05 ), #117, 'distance_accuracy_value', 'NONE');
#48 = DIRECTION ( 'NONE',  ( 0.000000000000000000, 0.000000000000000000, 1.000000000000000000 ) ) ;
#49 = DIRECTION ( 'NONE',  ( -1.000000000000000000, 0.000000000000000000, 0.000000000000000000 ) ) ;
#50 = CIRCLE ( 'NONE', #125, 5.500000000000000000 ) ;
#51 = PRODUCT_DEFINITION_FORMATION_WITH_SPECIFIED_SOURCE ( 'ANY', '', #101, .NOT_KNOWN. ) ;
#52 = FILL_AREA_STYLE ('',( #43 ) ) ;
#53 = EDGE_CURVE ( 'NONE', #30, #107, #63, .T. ) ;
#54 = FACE_OUTER_BOUND ( 'NONE', #75, .T. ) ;
#55 = DIRECTION ( 'NONE',  ( 0.000000000000000000, 0.000000000000000000, 1.000000000000000000 ) ) ;
#56 = FACE_OUTER_BOUND ( 'NONE', #28, .T. ) ;
#57 = CIRCLE ( 'NONE', #93, 5.500000000000000000 ) ;
#58 = ORIENTED_EDGE ( 'NONE', *, *, #53, .F. ) ;
#59 = ORIENTED_EDGE ( 'NONE', *, *, #69, .F. ) ;
#60 = CARTESIAN_POINT ( 'NONE',  ( -5.500000000000000000, 0.000000000000000000, 30.00000000000000000 ) ) ;
#61 = AXIS2_PLACEMENT_3D ( 'NONE', #73, #17, #49 ) ;
#62 = APPLICATION_PROTOCOL_DEFINITION ( 'draft international standard', 'automotive_design', 1998, #81 ) ;
#63 = LINE ( 'NONE', #103, #108 ) ;
#64 = LINE ( 'NONE', #94, #34 ) ;
#65 = ORIENTED_EDGE ( 'NONE', *, *, #96, .T. ) ;
#66 = AXIS2_PLACEMENT_3D ( 'NONE', #98, #4, #79 ) ;
#67 = ORIENTED_EDGE ( 'NONE', *, *, #20, .T. ) ;
#68 = DIRECTION ( 'NONE',  ( 0.000000000000000000, 0.000000000000000000, 1.000000000000000000 ) ) ;
#69 = EDGE_CURVE ( 'NONE', #31, #30, #15, .T. ) ;
#70 = CLOSED_SHELL ( 'NONE', ( #5, #35, #13, #121 ) ) ;
#71 = APPLICATION_CONTEXT ( 'automotive_design' ) ;
#72 = DIRECTION ( 'NONE',  ( 1.000000000000000000, 0.000000000000000000, 0.000000000000000000 ) ) ;
#73 = CARTESIAN_POINT ( 'NONE',  ( 0.000000000000000000, 0.000000000000000000, 30.00000000000000000 ) ) ;
#74 = AXIS2_PLACEMENT_3D ( 'NONE', #95, #106, #104 ) ;
#75 = EDGE_LOOP ( 'NONE', ( #59, #65, #23, #58 ) ) ;
#76 = PRESENTATION_STYLE_ASSIGNMENT (( #105 ) ) ;
#77 = ORIENTED_EDGE ( 'NONE', *, *, #20, .F. ) ;
#78 = PRODUCT_RELATED_PRODUCT_CATEGORY ( 'part', '', ( #101 ) ) ;
#79 = DIRECTION ( 'NONE',  ( 1.000000000000000000, 0.000000000000000000, -0.000000000000000000 ) ) ;
#80 = MANIFOLD_SOLID_BREP ( 'Boss-Extrude1', #70 ) ;
#81 = APPLICATION_CONTEXT ( 'automotive_design' ) ;
#82 = AXIS2_PLACEMENT_3D ( 'NONE', #38, #55, #72 ) ;
#83 = DIRECTION ( 'NONE',  ( 1.000000000000000000, 0.000000000000000000, -0.000000000000000000 ) ) ;
#84 = DIRECTION ( 'NONE',  ( 0.000000000000000000, 0.000000000000000000, 1.000000000000000000 ) ) ;
#85 = PLANE ( 'NONE',  #32 ) ;
#86 =( NAMED_UNIT ( * ) PLANE_ANGLE_UNIT ( ) SI_UNIT ( $, .RADIAN. ) );
#87 = PLANE ( 'NONE',  #66 ) ;
#88 = FACE_OUTER_BOUND ( 'NONE', #46, .T. ) ;
#89 = CARTESIAN_POINT ( 'NONE',  ( 0.000000000000000000, 0.000000000000000000, 0.000000000000000000 ) ) ;
#90 = PRODUCT_DEFINITION ( 'UNKNOWN', '', #51, #99 ) ;
#91 = PRODUCT_DEFINITION_SHAPE ( 'NONE', 'NONE',  #90 ) ;
#92 = CARTESIAN_POINT ( 'NONE',  ( 5.500000000000000000, 6.735557395310442023E-16, 0.000000000000000000 ) ) ;
#93 = AXIS2_PLACEMENT_3D ( 'NONE', #33, #68, #24 ) ;
#94 = CARTESIAN_POINT ( 'NONE',  ( 5.500000000000000000, 6.735557395310442023E-16, 30.00000000000000000 ) ) ;
#95 = CARTESIAN_POINT ( 'NONE',  ( 0.000000000000000000, 0.000000000000000000, 0.000000000000000000 ) ) ;
#96 = EDGE_CURVE ( 'NONE', #31, #42, #64, .T. ) ;
#97 = DIRECTION ( 'NONE',  ( -0.000000000000000000, -0.000000000000000000, -1.000000000000000000 ) ) ;
#98 = CARTESIAN_POINT ( 'NONE',  ( 0.000000000000000000, 0.000000000000000000, 30.00000000000000000 ) ) ;
#99 = PRODUCT_DEFINITION_CONTEXT ( 'detailed design', #81, 'design' ) ;
#100 =( GEOMETRIC_REPRESENTATION_CONTEXT ( 3 ) GLOBAL_UNCERTAINTY_ASSIGNED_CONTEXT ( ( #123 ) ) GLOBAL_UNIT_ASSIGNED_CONTEXT ( ( #36, #113, #25 ) ) REPRESENTATION_CONTEXT ( 'NONE', 'WORKASPACE' ) );
#101 = PRODUCT ( 'Rod2-For Circular Plate', 'Rod2-For Circular Plate', '', ( #26 ) ) ;
#102 = SHAPE_DEFINITION_REPRESENTATION ( #91, #37 ) ;
#103 = CARTESIAN_POINT ( 'NONE',  ( -5.500000000000000000, 0.000000000000000000, 30.00000000000000000 ) ) ;
#104 = DIRECTION ( 'NONE',  ( 1.000000000000000000, 0.000000000000000000, 0.000000000000000000 ) ) ;
#105 = SURFACE_STYLE_USAGE ( .BOTH. , #11 ) ;
#106 = DIRECTION ( 'NONE',  ( 0.000000000000000000, 0.000000000000000000, 1.000000000000000000 ) ) ;
#107 = VERTEX_POINT ( 'NONE', #29 ) ;
#108 = VECTOR ( 'NONE', #39, 1000.000000000000000 ) ;
#109 = CARTESIAN_POINT ( 'NONE',  ( 0.000000000000000000, 0.000000000000000000, 30.00000000000000000 ) ) ;
#110 =( GEOMETRIC_REPRESENTATION_CONTEXT ( 3 ) GLOBAL_UNCERTAINTY_ASSIGNED_CONTEXT ( ( #47 ) ) GLOBAL_UNIT_ASSIGNED_CONTEXT ( ( #117, #86, #1 ) ) REPRESENTATION_CONTEXT ( 'NONE', 'WORKASPACE' ) );
#111 = DIRECTION ( 'NONE',  ( 1.000000000000000000, 0.000000000000000000, 0.000000000000000000 ) ) ;
#112 = PRESENTATION_LAYER_ASSIGNMENT (  '', '', ( #119 ) ) ;
#113 =( NAMED_UNIT ( * ) PLANE_ANGLE_UNIT ( ) SI_UNIT ( $, .RADIAN. ) );
#114 = EDGE_CURVE ( 'NONE', #42, #107, #16, .T. ) ;
#115 = APPLICATION_PROTOCOL_DEFINITION ( 'draft international standard', 'automotive_design', 1998, #71 ) ;
#116 = CARTESIAN_POINT ( 'NONE',  ( 5.500000000000000000, 6.735557395310442023E-16, 30.00000000000000000 ) ) ;
#117 =( LENGTH_UNIT ( ) NAMED_UNIT ( * ) SI_UNIT ( .MILLI., .METRE. ) );
#118 = ORIENTED_EDGE ( 'NONE', *, *, #69, .T. ) ;
#119 = STYLED_ITEM ( 'NONE', ( #76 ), #80 ) ;
#120 = CYLINDRICAL_SURFACE ( 'NONE', #45, 5.500000000000000000 ) ;
#121 = ADVANCED_FACE ( 'NONE', ( #10 ), #85, .F. ) ;
#122 = ORIENTED_EDGE ( 'NONE', *, *, #53, .T. ) ;
#123 = UNCERTAINTY_MEASURE_WITH_UNIT (LENGTH_MEASURE( 1.000000000000000082E-05 ), #36, 'distance_accuracy_value', 'NONE');
#124 = DIRECTION ( 'NONE',  ( 1.000000000000000000, 0.000000000000000000, 0.000000000000000000 ) ) ;
#125 = AXIS2_PLACEMENT_3D ( 'NONE', #89, #14, #111 ) ;
ENDSEC;
END-ISO-10303-21;
